<?xml version="1.0" standalone="no"?>
<!DOCTYPE svg PUBLIC "-//W3C//DTD SVG 20010904//EN"
 "http://www.w3.org/TR/2001/REC-SVG-20010904/DTD/svg10.dtd">
<svg version="1.0" xmlns="http://www.w3.org/2000/svg"
 width="260.000000pt" height="260.000000pt" viewBox="0 0 260.000000 260.000000"
 preserveAspectRatio="xMidYMid meet">
<metadata>
Created by potrace 1.14, written by Peter Selinger 2001-2017
</metadata>
<g transform="translate(0.000000,260.000000) scale(0.100000,-0.100000)"
fill="#000000" stroke="none">
<path d="M133 2457 c22 -59 196 -265 246 -292 57 -31 56 -29 22 -88 -41 -72
-85 -180 -111 -273 -21 -75 -24 -87 -36 -154 -4 -19 -8 -44 -10 -55 -25 -133
-24 -427 2 -595 9 -59 44 -202 66 -265 100 -293 285 -485 467 -485 165 0 307
113 417 332 61 121 109 272 129 408 4 25 11 70 15 100 16 101 5 424 -18 550
-66 366 -230 633 -432 705 -25 9 -88 18 -140 20 -52 2 -108 7 -125 10 -80 16
-150 37 -211 65 -61 28 -76 30 -176 30 -86 0 -109 -3 -105 -13z m774 -333 c54
-25 145 -121 188 -198 90 -162 138 -362 139 -591 1 -186 -7 -264 -38 -386 -50
-191 -109 -306 -210 -403 -121 -118 -285 -113 -410 12 -266 264 -322 922 -113
1337 110 220 278 306 444 229z"/>
<path d="M969 1650 c0 -27 -1 -94 -1 -147 l-1 -98 -81 -5 -81 -5 2 -35 c10
-141 80 -260 154 -260 92 0 158 111 164 278 5 130 -30 242 -93 297 -45 40 -62
33 -63 -25z"/>
<path d="M2512 2427 c-89 -82 -97 -89 -157 -134 -125 -95 -324 -163 -496 -168
-108 -3 -161 -21 -223 -76 -129 -113 -218 -329 -243 -589 -33 -346 59 -693
227 -857 181 -177 413 -78 537 228 120 298 116 698 -12 1010 -4 12 6 23 38 43
57 32 112 95 192 216 58 88 84 133 162 280 56 106 50 116 -25 47z m-603 -487
c80 -40 164 -164 205 -300 35 -118 44 -189 41 -338 -4 -170 -7 -197 -46 -314
-34 -106 -75 -180 -129 -235 -55 -55 -103 -77 -165 -77 -199 2 -351 303 -339
674 4 139 5 146 29 245 69 280 242 428 404 345z"/>
<path d="M1676 1593 c-53 -53 -75 -129 -71 -245 3 -94 26 -160 72 -202 78 -72
167 10 189 176 l7 47 -69 3 -69 3 0 123 c0 106 -2 122 -16 122 -9 0 -28 -12
-43 -27z"/>
<path d="M1321 614 l-53 -96 17 -62 c9 -33 33 -119 52 -190 43 -150 34 -158
103 92 l43 152 -48 93 c-26 50 -50 95 -54 99 -3 4 -30 -36 -60 -88z"/>
</g>
</svg>
